<svg version="1.2" xmlns="http://www.w3.org/2000/svg" viewBox="0 0 64 64" width="64" height="64"><style>.c{fill:rgb(2 132 199)}.m{fill:black}@media(prefers-color-scheme:dark){.m{fill:white}}</style><path class="c" d="m26.1 55.8q-11.2 0-17.3-5.6-6-5.7-6-18.2 0-23.7 23.2-23.7 5.6 0 10.3 1.3 4.9 1.4 7.2 3v14.8h-14.1v-4.3q0-2.2-1-3.3-1-1-3-1-2 0-3 1-1 1.1-1 3.3v17.9q0 2.2 1 3.3 1 1 3 1 2 0 3-1 1-1.1 1-3.3v-4.8h14.1v15.3q-2.4 1.6-7.2 3-4.7 1.3-10.2 1.3z"/><path class="m" d="m62 35.3v4h-1.2v10.8h1.2v3.9h-9.1v-3.9h1.1v-8.4l-4 12.3h-3.6l-4.2-12.2v8.3h1.2v3.9h-7.9v-3.9h1.2v-10.8h-1.2v-4h11l2.5 7.5 2.4-7.5z"/></svg>
